<svg xmlns="http://www.w3.org/2000/svg" width="256" height="256" viewBox="0 0 256 256"><path fill="#41D1FF" d="M229.62 62.227L146.495 2.054a29.362 29.362 0 0 0-36.99 0L26.38 62.227a29.362 29.362 0 0 0-14.218 25.434V168.34c0 10.28 5.49 19.83 14.217 25.434l83.125 60.173a29.362 29.362 0 0 0 36.99 0l83.124-60.173a29.362 29.362 0 0 0 14.218-25.434V87.66a29.362 29.362 0 0 0-14.217-25.433Z"/><path fill="#33B9E6" d="m146.495 2.054l-18.495 125.946l-41.62-89.173l-59.997 43.403a29.362 29.362 0 0 0-14.218 25.434V168.34c0 10.28 5.49 19.83 14.217 25.434l83.125 60.173a29.362 29.362 0 0 0 36.99 0l83.124-60.173a29.362 29.362 0 0 0 14.218-25.434V87.66a29.362 29.362 0 0 0-14.217-25.433L146.495 2.054Z"/><path fill="#FFD600" d="M117.844 251.21a29.52 29.52 0 0 1-27.27-16.32L4.316 113.33a29.52 29.52 0 0 1 12.8-38.4l32.1-18.423l70.193 150.313a29.52 29.52 0 0 1-1.565 44.39Z"/><path fill="#FFCA00" d="m90.574 234.89l-86.258-121.56a29.52 29.52 0 0 1 12.8-38.4l32.1-18.423l41.358 178.383Z"/><path fill="#F60" d="M241.684 113.33a29.52 29.52 0 0 0-12.8-38.4l-32.1-18.423L126.59 234.89a29.52 29.52 0 0 0 28.835 16.32a29.52 29.52 0 0 0 27.27-16.32l59-121.56Z"/><path fill="#FF9100" d="m251.414 74.927l-32.1-18.423L183.13 214.89l59.014-121.56a29.52 29.52 0 0 0 9.27-18.403Z"/></svg>
